<svg xmlns="http://www.w3.org/2000/svg" width="163" height="38" viewBox="0 0 163 38"><g id="Logo" transform="translate(-260 -51)"><g id="Logo-2" data-name="Logo" transform="translate(260 51)"><g id="Elements"><path id="Path_1429" fill="#f29f05" d="M315.086,140.507H275.222v-.894c0-11.325,8.941-20.538,19.933-20.538s19.931,9.213,19.931,20.538Z" data-name="Path 1429" transform="translate(-270.155 -115.396)"/><path id="Path_1430" fill="#fff" d="M301.13,133.517a1.488,1.488,0,0,1-1.394-.994,11.361,11.361,0,0,0-10.583-7.54,1.528,1.528,0,0,1,0-3.055,14.353,14.353,0,0,1,13.37,9.527,1.541,1.541,0,0,1-.875,1.966A1.444,1.444,0,0,1,301.13,133.517Z" data-name="Path 1430" transform="translate(-264.176 -113.935)"/><path id="Path_1431" fill="#fff" d="M297.343,146.544a14.043,14.043,0,0,1-13.837-14.211h2.975a10.865,10.865,0,1,0,21.723,0h2.975A14.043,14.043,0,0,1,297.343,146.544Z" data-name="Path 1431" transform="translate(-266.247 -108.544)"/><path id="Path_1432" fill="#fff" d="M302.183,132.519a7.064,7.064,0,1,1-14.122,0Z" data-name="Path 1432" transform="translate(-264.027 -108.446)"/><path id="Path_1433" fill="#f29f05" d="M320.332,134.575H273.3a1.528,1.528,0,0,1,0-3.055h47.033a1.528,1.528,0,0,1,0,3.055Z" data-name="Path 1433" transform="translate(-271.815 -108.923)"/><path id="Path_1434" fill="#f29f05" d="M289.154,123.4a1.507,1.507,0,0,1-1.487-1.528v-3.678a1.488,1.488,0,1,1,2.975,0v3.678A1.508,1.508,0,0,1,289.154,123.4Z" data-name="Path 1434" transform="translate(-264.154 -116.667)"/><path id="Path_1435" fill="#fff" d="M284.777,138.133H275.3a1.528,1.528,0,0,1,0-3.055h9.474a1.528,1.528,0,0,1,0,3.055Z" data-name="Path 1435" transform="translate(-270.84 -107.068)"/><path id="Path_1436" fill="#fff" d="M284.8,141.691h-6.5a1.528,1.528,0,0,1,0-3.055h6.5a1.528,1.528,0,0,1,0,3.055Z" data-name="Path 1436" transform="translate(-269.379 -105.218)"/></g></g><text id="Quickeat" fill="#fff" font-family="Poppins-Bold, Poppins" font-size="20" font-weight="700" transform="translate(320 77)"><tspan x="0" y="0">QUICK</tspan><tspan y="0" fill="#f29f05">EAT</tspan></text></g></svg>