<svg xmlns="http://www.w3.org/2000/svg" id="Price_Icon" width="68" height="68" data-name="Price Icon" viewBox="0 0 68 68"><rect id="frame" width="68" height="68" fill="none"/><g id="Elements" transform="translate(1.889 7.556)"><g id="Group_927" data-name="Group 927" transform="translate(20.908 19.669)"><path id="Path_2450" fill="none" stroke="#f29f05" stroke-linecap="square" stroke-miterlimit="10" stroke-width="2" d="M467.05,288.922c-1.256,1.256-.757,3.789,1.113,5.659s3.9,2.877,5.659,1.113.756-3.789-1.114-5.659h0c-1.87-1.87-2.76-4.012-1.113-5.659s3.789-.756,5.658,1.114,2.368,4.4,1.114,5.658" data-name="Path 2450" transform="translate(-466.027 -283.511)"/><line id="Line_25" x2="2.035" y1="2.035" fill="none" stroke="#f29f05" stroke-linecap="square" stroke-miterlimit="10" stroke-width="2" data-name="Line 25" transform="translate(11.196 0.154)"/><line id="Line_26" x2="2.035" y1="2.035" fill="none" stroke="#f29f05" stroke-linecap="square" stroke-miterlimit="10" stroke-width="2" data-name="Line 26" transform="translate(0 10.975)"/></g><path id="Path_2451" fill="none" stroke="#f29f05" stroke-linecap="square" stroke-miterlimit="10" stroke-width="2" d="M496.71,280.284v3.07l-30.549,29.591-24.051-23.3,30.549-29.592H485.5l11.211,10.859v4.194" data-name="Path 2451" transform="translate(-442.11 -260.056)"/><path id="Path_2452" fill="none" stroke="#f29f05" stroke-linecap="square" stroke-miterlimit="10" stroke-width="2" d="M492.285,276.636a3.878,3.878,0,1,1,0-5.485A3.879,3.879,0,0,1,492.285,276.636Z" data-name="Path 2452" transform="translate(-447.496 -261.616)"/><path id="Path_2453" fill="none" stroke="#f29f05" stroke-linecap="square" stroke-miterlimit="10" stroke-width="2" d="M492.165,274.771c5.954,2.007,24.383,5.464,19.66,15.712,0,0-3.183,6.353-11,4.094" data-name="Path 2453" transform="translate(-448.369 -262.561)"/></g></svg>